<?xml version="1.0" standalone="no"?>
<!DOCTYPE svg PUBLIC "-//W3C//DTD SVG 20010904//EN"
 "http://www.w3.org/TR/2001/REC-SVG-20010904/DTD/svg10.dtd">
<svg version="1.0" xmlns="http://www.w3.org/2000/svg"
 width="835.000000pt" height="835.000000pt" viewBox="0 0 835.000000 835.000000"
 preserveAspectRatio="xMidYMid meet">
<metadata>
Created by potrace 1.14, written by Peter Selinger 2001-2017
</metadata>
<g transform="translate(0.000000,835.000000) scale(0.100000,-0.100000)"
fill="#000000" stroke="none">
<path d="M1095 8335 c-140 -24 -281 -66 -320 -97 -35 -28 -42 -79 -16 -117 30
-41 66 -46 142 -20 158 54 254 68 424 64 151 -3 232 -19 378 -75 73 -28 81
-29 112 -16 51 22 71 78 44 128 -17 31 -200 104 -311 122 -18 3 -44 8 -58 12
-54 13 -316 12 -395 -1z"/>
<path d="M6840 8330 c-159 -30 -285 -73 -306 -104 -32 -50 -20 -107 27 -132
33 -17 63 -18 90 -3 32 17 179 59 234 67 28 4 118 6 200 6 128 -1 164 -5 248
-28 54 -14 124 -37 155 -50 31 -13 68 -22 82 -19 67 11 97 102 49 147 -13 13
-51 33 -84 46 -33 12 -69 26 -80 30 -21 9 -87 25 -140 34 -16 3 -41 8 -55 12
-14 3 -92 7 -175 8 -111 3 -175 -1 -245 -14z"/>
<path d="M148 7626 c-47 -33 -104 -191 -133 -370 -16 -96 -13 -346 5 -424 7
-30 13 -59 14 -65 9 -41 21 -81 44 -146 28 -81 62 -113 111 -105 81 15 94 60
52 186 -48 142 -61 233 -57 393 4 150 28 265 79 390 27 65 26 99 -4 131 -29
31 -74 35 -111 10z"/>
<path d="M5939 7636 c-39 -13 -63 -54 -103 -177 -76 -233 -82 -497 -17 -741
30 -114 67 -186 99 -195 40 -11 45 -10 74 4 52 25 60 71 27 154 -44 113 -64
232 -63 384 0 161 17 255 71 394 31 80 35 108 21 135 -24 44 -59 58 -109 42z"/>
<path d="M2339 7580 c-35 -34 -37 -65 -8 -139 90 -237 86 -546 -10 -785 -36
-90 -35 -124 6 -156 35 -28 84 -26 114 4 32 32 84 172 110 298 23 110 30 307
16 424 -15 131 -79 337 -113 365 -7 6 -30 12 -50 14 -30 3 -42 -2 -65 -25z"/>
<path d="M8134 7600 c-26 -10 -54 -48 -54 -71 0 -9 13 -56 29 -105 46 -142 60
-232 56 -384 -4 -176 -15 -232 -75 -393 -28 -72 -29 -81 -16 -112 22 -51 78
-71 127 -44 39 21 107 208 134 369 18 108 13 357 -9 455 -26 113 -68 236 -90
262 -23 26 -69 37 -102 23z"/>
<path d="M1243 7493 c-305 -61 -462 -386 -317 -654 46 -85 104 -132 413 -344
299 -205 433 -297 556 -382 88 -60 320 -291 407 -403 147 -191 278 -416 347
-595 17 -44 35 -87 40 -95 6 -11 -1 -37 -21 -80 -42 -93 -100 -268 -114 -345
-27 -153 -32 -216 -29 -375 2 -96 6 -186 9 -200 4 -14 9 -41 12 -60 18 -117
71 -280 136 -420 44 -96 44 -96 -9 -227 -165 -410 -421 -732 -908 -1143 -201
-170 -388 -302 -610 -430 -144 -83 -180 -112 -227 -184 -147 -227 -66 -523
176 -641 81 -39 105 -45 197 -46 119 -1 213 37 303 123 35 34 126 159 252 348
381 570 412 610 599 793 148 145 352 296 542 400 106 59 306 144 413 177 l85
26 84 -33 c73 -28 189 -65 252 -79 10 -2 29 -6 42 -9 55 -12 210 -28 295 -29
210 -4 409 31 618 110 l92 34 101 -35 c264 -92 517 -233 741 -414 198 -159
393 -377 522 -582 35 -56 153 -236 263 -402 220 -331 254 -369 375 -416 127
-50 290 -32 407 46 228 151 263 480 72 679 -30 31 -508 363 -713 495 -439 283
-785 715 -971 1213 l-37 99 55 116 c66 138 110 268 139 411 18 86 22 140 22
300 1 107 -3 222 -7 255 -14 101 -65 282 -108 383 -22 54 -46 109 -52 124 -13
33 15 109 104 285 118 231 258 422 449 614 105 106 164 155 268 225 73 49 175
118 227 154 52 36 208 142 346 235 143 97 271 192 299 221 88 93 127 206 117
338 -15 182 -129 326 -308 386 -124 43 -289 16 -394 -64 -61 -47 -77 -66 -221
-281 -74 -110 -162 -238 -194 -285 -33 -47 -65 -93 -72 -104 -51 -73 -220
-303 -264 -357 -216 -269 -569 -523 -919 -663 l-64 -26 -53 31 c-133 79 -341
156 -493 184 -140 25 -221 32 -354 30 -259 -5 -476 -58 -711 -175 -52 -25
-105 -53 -117 -60 -19 -12 -29 -11 -80 10 -377 154 -727 413 -975 722 -41 51
-153 214 -193 280 -5 9 -103 156 -217 326 -219 327 -264 380 -361 425 -80 38
-192 55 -264 40z m3087 -2448 c334 -60 596 -298 696 -632 22 -73 27 -109 28
-213 1 -141 -6 -197 -36 -290 -117 -364 -450 -613 -823 -614 -181 -1 -259 16
-409 88 -230 111 -400 320 -467 571 -41 156 -31 372 24 521 70 188 216 364
387 463 82 48 202 92 285 105 21 4 40 8 42 10 10 9 207 3 273 -9z"/>
<path d="M4048 4910 c-26 -4 -69 -15 -95 -24 l-48 -16 0 -224 c0 -124 3 -227
6 -231 9 -9 670 376 663 386 -13 22 -167 87 -245 105 -45 10 -234 13 -281 4z"/>
<path d="M3775 4803 c-168 -110 -301 -307 -331 -489 l-6 -41 118 -69 c66 -38
128 -74 139 -81 11 -7 27 -15 35 -19 8 -4 37 -21 63 -37 26 -16 50 -27 53 -24
5 5 7 797 2 802 -2 2 -34 -17 -73 -42z"/>
<path d="M4443 4652 c-101 -59 -183 -109 -183 -112 0 -3 21 -17 48 -31 26 -14
121 -69 211 -122 90 -54 165 -97 167 -97 1 0 52 -29 113 -65 60 -36 113 -65
117 -65 12 0 -5 143 -26 219 -25 90 -64 168 -124 247 -43 58 -121 135 -135
133 -3 0 -88 -49 -188 -107z"/>
<path d="M4546 3928 c1 -205 2 -379 3 -386 2 -18 84 40 152 107 116 117 190
263 210 419 1 4 1 12 0 19 -1 11 -341 213 -358 213 -4 0 -7 -168 -7 -372z"/>
<path d="M3433 4133 c14 -214 107 -394 278 -542 l27 -22 123 72 c68 39 149 86
180 103 111 62 109 56 37 97 -35 20 -192 111 -350 203 -159 91 -291 166 -294
166 -4 0 -4 -35 -1 -77z"/>
<path d="M4210 3779 c-151 -88 -305 -176 -342 -197 -38 -20 -68 -40 -68 -44 0
-20 155 -80 250 -97 98 -18 254 -7 348 25 46 15 86 32 88 38 2 6 3 106 2 223
l-3 211 -275 -159z"/>
<path d="M747 6042 c-24 -15 -39 -41 -42 -77 -3 -30 29 -66 82 -90 142 -66
341 -103 528 -99 134 2 163 6 285 36 141 34 206 64 225 103 14 30 14 38 1 69
-26 62 -67 70 -167 32 -35 -13 -89 -29 -119 -35 -30 -6 -66 -14 -80 -17 -40
-9 -254 -11 -312 -3 -97 14 -122 20 -223 55 -129 45 -144 47 -178 26z"/>
<path d="M6534 6050 c-51 -20 -70 -94 -36 -137 16 -20 71 -46 167 -78 234 -78
513 -81 763 -9 149 43 193 79 177 144 -16 64 -74 86 -148 55 -42 -17 -165 -51
-222 -61 -60 -10 -261 -12 -319 -2 -28 4 -64 10 -81 12 -46 8 -133 35 -197 62
-62 26 -72 27 -104 14z"/>
<path d="M1135 2569 c-94 -14 -105 -16 -190 -39 -118 -32 -183 -64 -196 -97
-21 -56 20 -123 75 -123 17 0 55 9 84 20 115 44 221 62 362 64 121 0 206 -6
242 -19 7 -2 24 -6 38 -9 27 -5 120 -35 185 -60 57 -22 73 -20 106 13 37 37
40 90 7 121 -39 37 -182 88 -321 115 -94 19 -303 26 -392 14z"/>
<path d="M6915 2569 c-120 -12 -293 -59 -355 -96 -74 -43 -45 -163 39 -163 11
0 59 13 108 29 92 31 117 37 223 51 66 8 260 5 315 -5 63 -12 151 -37 214 -62
91 -34 108 -36 141 -16 47 27 58 80 27 127 -25 37 -201 100 -357 128 -73 12
-267 17 -355 7z"/>
<path d="M147 1859 c-22 -13 -48 -65 -81 -165 -30 -92 -32 -100 -51 -209 -12
-74 -14 -320 -2 -385 2 -14 8 -43 11 -65 4 -22 21 -85 39 -140 38 -123 69
-161 124 -152 82 14 96 61 53 187 -40 122 -59 233 -58 355 0 163 25 287 88
445 12 30 21 56 21 58 -5 20 -36 64 -50 72 -25 13 -71 12 -94 -1z"/>
<path d="M5913 1852 c-41 -32 -113 -249 -130 -392 -17 -143 -7 -345 23 -465
34 -138 67 -217 99 -237 38 -24 82 -17 113 18 29 33 28 48 -8 159 -55 173 -70
336 -46 505 14 96 66 280 87 305 4 6 6 26 4 45 -8 68 -90 103 -142 62z"/>
<path d="M2363 1825 c-59 -25 -65 -63 -28 -171 39 -114 56 -210 60 -335 3
-148 -15 -262 -66 -412 -22 -64 -38 -125 -34 -135 17 -55 90 -81 138 -49 32
21 80 146 114 292 41 178 37 415 -8 590 -37 142 -70 210 -110 224 -18 6 -32
11 -33 11 -1 -1 -15 -7 -33 -15z"/>
<path d="M8146 1832 c-10 -2 -27 -11 -37 -21 -33 -30 -33 -65 -1 -158 17 -48
33 -106 37 -128 3 -22 10 -62 15 -90 9 -52 7 -292 -4 -334 -27 -112 -49 -185
-67 -227 -29 -67 -27 -110 4 -142 48 -48 122 -26 151 43 32 77 72 203 82 263
2 12 7 34 10 50 13 60 12 319 -1 402 -15 86 -50 215 -78 282 -20 48 -63 71
-111 60z"/>
<path d="M774 283 c-37 -7 -67 -49 -66 -89 1 -20 7 -43 14 -51 28 -34 170 -88
318 -119 105 -23 333 -27 445 -8 177 29 310 75 335 117 30 48 11 106 -40 127
-28 12 -42 10 -128 -19 -54 -18 -113 -34 -132 -37 -19 -3 -53 -9 -74 -14 -22
-5 -105 -7 -185 -5 -160 3 -249 21 -385 74 -42 17 -78 30 -79 30 -1 -1 -12 -4
-23 -6z"/>
<path d="M6532 275 c-36 -16 -52 -42 -52 -85 0 -43 32 -72 115 -103 175 -65
299 -86 495 -82 154 2 247 18 385 63 100 33 135 64 130 116 -7 84 -56 98 -185
56 -52 -17 -129 -37 -170 -44 -85 -15 -288 -19 -346 -6 -21 5 -52 11 -69 14
-54 9 -99 22 -160 46 -98 37 -109 39 -143 25z"/>
</g>
</svg>
