<svg id="Capa_1" data-name="Capa 1" xmlns="http://www.w3.org/2000/svg" viewBox="0 0 230.54 230.65"><defs><style>.cls-1{fill:none;stroke:#e02321;stroke-miterlimit:10;stroke-width:4px;}.cls-2{fill:#e02321;}</style></defs><title>4K</title><rect class="cls-1" x="2" y="2.11" width="226.54" height="226.54" rx="6.56" ry="6.56"/><line class="cls-1" x1="2.7" y1="197.18" x2="229.05" y2="197.18"/><line class="cls-1" x1="3.36" y1="33.36" x2="229.71" y2="33.36"/><line class="cls-1" x1="37.6" y1="228.88" x2="37.6" y2="196.3"/><line class="cls-1" x1="37.6" y1="33.8" x2="37.6" y2="1.21"/><line class="cls-1" x1="70.22" y1="227.78" x2="70.22" y2="195.2"/><line class="cls-1" x1="70.22" y1="32.7" x2="70.22" y2="0.11"/><line class="cls-1" x1="102.84" y1="229.65" x2="102.84" y2="197.07"/><line class="cls-1" x1="102.84" y1="34.57" x2="102.84" y2="1.98"/><line class="cls-1" x1="135.46" y1="228.55" x2="135.46" y2="195.97"/><line class="cls-1" x1="135.46" y1="33.47" x2="135.46" y2="0.88"/><line class="cls-1" x1="168.08" y1="228.77" x2="168.08" y2="196.19"/><line class="cls-1" x1="168.08" y1="33.69" x2="168.08" y2="1.1"/><line class="cls-1" x1="200.7" y1="227.67" x2="200.7" y2="195.09"/><line class="cls-1" x1="200.7" y1="32.59" x2="200.7"/><path class="cls-2" d="M664.45,337.53V390.7h10v15.54h-10v16.15H648.67V406.24h-45.4L601.81,390,640,337.53ZM648.67,390.7V351.37L619.9,390.7Z" transform="translate(-567.97 -269.03)"/><path class="cls-2" d="M754.65,337.89,716.9,378.56l40.91,42.85v1H738l-35.57-37.63v37.63h-16v-85h16v35.93l32.29-35.93h19.91Z" transform="translate(-567.97 -269.03)"/></svg>