<svg id="Capa_1" data-name="Capa 1" xmlns="http://www.w3.org/2000/svg" viewBox="0 0 253.48 234.62"><defs><style>.cls-1,.cls-2{fill:none;stroke:#e02321;stroke-miterlimit:10;}.cls-1{stroke-width:3px;}.cls-2{stroke-width:4px;}</style></defs><title>postproduccion</title><rect class="cls-1" x="43.12" y="36.25" width="81.85" height="81.85" rx="2.37" ry="2.37"/><line class="cls-1" x1="43.37" y1="106.73" x2="125.15" y2="106.73"/><line class="cls-1" x1="43.61" y1="47.55" x2="125.39" y2="47.55"/><line class="cls-1" x1="55.98" y1="118.18" x2="55.98" y2="106.41"/><line class="cls-1" x1="55.98" y1="47.7" x2="55.98" y2="35.93"/><line class="cls-1" x1="67.77" y1="117.79" x2="67.77" y2="106.02"/><line class="cls-1" x1="67.77" y1="47.31" x2="67.77" y2="35.53"/><line class="cls-1" x1="79.55" y1="118.46" x2="79.55" y2="106.69"/><line class="cls-1" x1="79.55" y1="47.98" x2="79.55" y2="36.21"/><line class="cls-1" x1="91.34" y1="118.06" x2="91.34" y2="106.29"/><line class="cls-1" x1="91.34" y1="47.58" x2="91.34" y2="35.81"/><line class="cls-1" x1="103.12" y1="118.14" x2="103.12" y2="106.37"/><line class="cls-1" x1="103.12" y1="47.66" x2="103.12" y2="35.89"/><line class="cls-1" x1="114.91" y1="117.75" x2="114.91" y2="105.98"/><line class="cls-1" x1="114.91" y1="47.27" x2="114.91" y2="35.49"/><path class="cls-1" d="M633.09,333.58v21.48a1.68,1.68,0,0,0,2.6,1.4L653,345a1.68,1.68,0,0,0-.08-2.85l-17.26-10.06a1.68,1.68,0,0,0-2.52,1.45Z" transform="translate(-556 -267.38)"/><line class="cls-2" x1="188.49" y1="53.8" x2="152.53" y2="53.8"/><line class="cls-2" x1="208.02" y1="53.8" x2="218.07" y2="53.8"/><line class="cls-2" x1="218.07" y1="79.17" x2="182.12" y2="79.17"/><line class="cls-2" x1="152.53" y1="79.17" x2="162.59" y2="79.17"/><path class="cls-2" d="M764,321.18a9.77,9.77,0,0,1-19.53,0" transform="translate(-556 -267.38)"/><path class="cls-2" d="M764,321.18c0-.09,0-.18,0-.26a9.78,9.78,0,1,0-19.56,0c0,.09,0,.18,0,.26" transform="translate(-556 -267.38)"/><path class="cls-2" d="M738.12,346.55c0-.09,0-.18,0-.26a9.78,9.78,0,0,0-19.56,0c0,.09,0,.18,0,.26" transform="translate(-556 -267.38)"/><path class="cls-2" d="M738.12,346.55a9.77,9.77,0,0,1-19.53,0" transform="translate(-556 -267.38)"/><line class="cls-2" x1="188.49" y1="104.54" x2="152.53" y2="104.54"/><line class="cls-2" x1="218.07" y1="104.54" x2="208.02" y2="104.54"/><path class="cls-2" d="M744.49,371.92c0,.09,0,.18,0,.26a9.78,9.78,0,1,0,19.56,0c0-.09,0-.18,0-.26" transform="translate(-556 -267.38)"/><path class="cls-2" d="M744.49,371.92a9.77,9.77,0,0,1,19.53,0" transform="translate(-556 -267.38)"/><rect class="cls-2" x="20.92" y="18.39" width="211.42" height="122.09" rx="6.47" ry="6.47"/><rect class="cls-2" x="2" y="2" width="249.48" height="188.16" rx="20.84" ry="20.84"/><line class="cls-2" x1="2" y1="152.64" x2="251.48" y2="152.64"/><line class="cls-2" x1="112.47" y1="170.61" x2="141.01" y2="170.61"/><polygon class="cls-2" points="111.67 189.8 102.16 213.59 151.31 213.59 143.92 189.8 111.67 189.8"/><rect class="cls-2" x="84.19" y="213.59" width="85.1" height="19.03"/></svg>