<?xml version="1.0" encoding="UTF-8"?><svg id="Capa_1" xmlns="http://www.w3.org/2000/svg" viewBox="0 0 53.94 53.94"><defs><style>.cls-1{fill:#df2320;}</style></defs><path class="cls-1" d="M53.36,40.9c-2.01-3.8-8.98-7.91-9.29-8.09-.9-.51-1.83-.78-2.71-.78-1.3,0-2.37,.6-3.01,1.68-1.02,1.22-2.28,2.65-2.59,2.87-2.38,1.61-4.24,1.43-6.29-.63l-11.49-11.49c-2.05-2.05-2.23-3.93-.63-6.29,.22-.31,1.65-1.58,2.87-2.6,.78-.46,1.31-1.15,1.55-1.99,.31-1.12,.08-2.44-.65-3.73-.17-.3-4.29-7.27-8.09-9.28-.71-.38-1.51-.57-2.31-.57-1.32,0-2.56,.51-3.49,1.44l-2.54,2.54C.69,8-.77,12.54,.38,17.5c.96,4.13,3.74,8.53,8.28,13.07l14.7,14.7c5.75,5.75,11.22,8.66,16.28,8.66h0c3.72,0,7.19-1.58,10.31-4.7l2.54-2.54c1.54-1.54,1.89-3.87,.87-5.8Z"/></svg>