<?xml version="1.0" encoding="UTF-8"?><svg id="Capa_1" xmlns="http://www.w3.org/2000/svg" viewBox="0 0 457.98 176.89"><defs><style>.cls-1{fill:#f3f2f2;}</style></defs><path class="cls-1" d="M218.62,88.32c0,61.18-36.61,88.57-109.31,88.57S0,149.5,0,88.32,36.61,0,109.31,0s109.31,27.14,109.31,88.32Zm-52.22,0c0-36.86-15.1-43.78-57.09-43.78s-57.09,6.91-57.09,43.78,15.1,44.03,57.09,44.03,57.09-7.17,57.09-44.03Z"/><path class="cls-1" d="M282.88,2.82h100.35c51.97,0,73.47,20.99,73.47,53.25,0,29.44-20.22,49.15-64.25,49.15h-81.41c-12.29,0-18.18,3.58-18.18,12.29v12.54h165.12l-34.05,44.03H241.66v-56.06c0-31.23,22.53-46.85,64.25-46.85h81.41c12.29,0,18.18-3.33,18.18-12.03s-5.89-11.78-18.18-11.78H248.83L282.88,2.82Z"/></svg>