<?xml version="1.0" encoding="UTF-8"?><svg id="Capa_1" xmlns="http://www.w3.org/2000/svg" viewBox="0 0 452.09 176.89"><defs><style>.cls-1{fill:#f3f2f2;}</style></defs><path class="cls-1" d="M218.62,88.32c0,61.18-36.61,88.57-109.31,88.57S0,149.5,0,88.32,36.61,0,109.31,0s109.31,27.14,109.31,88.32Zm-52.22,0c0-36.86-15.1-43.78-57.09-43.78s-57.09,6.91-57.09,43.78,15.1,44.03,57.09,44.03,57.09-7.17,57.09-44.03Z"/><path class="cls-1" d="M265.47,130.05h117.25c11.52,0,16.38-4.1,16.38-12.03,0-7.42-4.86-11.52-16.38-11.52h-102.65l27.39-36.61h76.03c7.68,0,14.85-2.82,14.85-11.52s-7.42-11.01-14.85-11.01H240.13L274.17,2.82h107.01c40.96,0,67.33,15.87,67.33,47.36,0,20.22-11.52,31.49-23.29,35.84,14.85,4.35,26.88,17.66,26.88,38.14,0,28.42-15.62,49.92-69.63,49.92H231.68l33.79-44.03Z"/></svg>