<?xml version="1.0" encoding="UTF-8"?><svg id="Modo_de_aislamiento" xmlns="http://www.w3.org/2000/svg" viewBox="0 0 217.26 217.26"><defs><style>.cls-1{fill:#fff;}.cls-2{fill:#df2320;}</style></defs><path class="cls-1" d="M189.59,173.97l-13.76-9.48-8.79-6.06c-9.02-7.39-15.98-17.19-19.93-28.39,2.9-5.82,4.57-12.37,4.57-19.31,0-7.56-1.94-14.67-5.33-20.86,5.32-16.68,17.3-26.91,25.11-33.56,4.05-3.44,10.18-8.13,18.51-12.6,.6-.41,1.15-.86,1.64-1.35,4.54-4.49,4.58-11.83,.1-16.37-2.17-2.2-5.07-3.42-8.16-3.44-3.09-.02-6,1.17-8.2,3.34-.55,.54-1.04,1.14-1.47,1.77-4.28,6.34-8.57,12.69-12.85,19.03-8.36,11.72-20.56,20.5-34.73,24.53-5.51-2.53-11.62-3.97-18.08-3.97s-12.3,1.38-17.71,3.8c-14.36-4.27-23.63-12.62-27.5-16.56-5.01-5.09-8.31-10.14-10.42-13.93l-8.85-13.26c-.43-.64-.92-1.24-1.46-1.78-2.19-2.19-5.09-3.39-8.18-3.39-3.09,0-6,1.2-8.18,3.39-4.51,4.51-4.51,11.85,0,16.37,.49,.49,1.04,.94,1.64,1.35l13.78,9.5c3.63,2.08,8.41,5.29,13.24,10.07,3.53,3.49,11.59,12.39,16.02,26.21-3.7,6.39-5.85,13.79-5.85,21.71,0,7.22,1.79,14.01,4.9,20-3.86,10.37-10.31,19.48-18.57,26.52l-11.49,7.82-12.39,8.44c-.6,.41-1.15,.86-1.64,1.35-4.54,4.49-4.58,11.83-.1,16.37,2.17,2.2,5.07,3.42,8.16,3.44,3.09,.02,6-1.17,8.2-3.34,.55-.54,1.04-1.14,1.47-1.77,1.92-2.95,4.79-7.29,8.41-12.45,4.37-6.24,6.55-9.35,8.4-11.59,8.15-9.84,18.65-15.12,25.44-17.74,6.61,4.06,14.36,6.44,22.69,6.44s16.22-2.42,22.87-6.55c3.31,1.25,7.31,3.07,11.56,5.76,7.55,4.77,12.75,10.28,16.09,14.5,1.94,2.91,3.88,5.82,5.83,8.74l8.85,13.26c.43,.64,.92,1.24,1.46,1.78,2.19,2.19,5.09,3.39,8.18,3.39,3.09,0,6-1.2,8.18-3.39,4.51-4.51,4.51-11.85,0-16.37-.49-.49-1.04-.94-1.64-1.35Zm-80.96-42.31c-12.7,0-23.04-10.33-23.04-23.04s10.33-23.04,23.04-23.04,23.04,10.33,23.04,23.04-10.33,23.04-23.04,23.04Z"/><path class="cls-2" d="M22.5,6.83c7.35-3.04,15.69-2.9,22.94,.38,.86,.39,1.87,.2,2.55-.46,1.18-1.14,.84-3.11-.65-3.79-8.4-3.79-18.07-3.95-26.59-.44-1.52,.62-1.92,2.59-.78,3.76,.66,.68,1.66,.9,2.53,.54Z"/><path class="cls-2" d="M2.96,19.73c-3.79,8.4-3.95,18.07-.44,26.59,.62,1.52,2.59,1.92,3.76,.78,.68-.66,.9-1.66,.54-2.53-3.04-7.35-2.9-15.69,.38-22.94,.39-.86,.2-1.87-.46-2.55-1.14-1.18-3.11-.84-3.79,.65Z"/><path class="cls-2" d="M19.73,64.1c8.4,3.79,18.07,3.95,26.59,.44,1.52-.62,1.92-2.59,.78-3.76-.66-.68-1.66-.9-2.53-.54-7.35,3.04-15.69,2.9-22.94-.38-.86-.39-1.87-.2-2.55,.46-1.18,1.14-.84,3.11,.65,3.79Z"/><path class="cls-2" d="M64.1,47.34c3.79-8.4,3.95-18.07,.44-26.59-.62-1.52-2.59-1.92-3.76-.78-.68,.66-.9,1.66-.54,2.53,3.04,7.35,2.9,15.69-.38,22.94-.39,.86-.2,1.87,.46,2.55,1.14,1.18,3.11,.84,3.79-.65Z"/><path class="cls-2" d="M197.53,2.96c-8.4-3.79-18.07-3.95-26.59-.44-1.52,.62-1.92,2.59-.78,3.76,.66,.68,1.66,.9,2.53,.54,7.35-3.04,15.69-2.9,22.94,.38,.86,.39,1.87,.2,2.55-.46,1.18-1.14,.84-3.11-.65-3.79Z"/><path class="cls-2" d="M156.48,47.1c.68-.66,.9-1.66,.54-2.53-3.04-7.35-2.9-15.69,.38-22.94,.39-.86,.2-1.87-.46-2.55-1.14-1.18-3.11-.84-3.79,.65-3.79,8.4-3.95,18.07-.44,26.59,.62,1.52,2.59,1.92,3.76,.78Z"/><path class="cls-2" d="M171.82,59.85c-.86-.39-1.87-.2-2.55,.46-1.18,1.14-.84,3.11,.65,3.79,8.4,3.79,18.07,3.95,26.59,.44,1.52-.62,1.92-2.59,.78-3.76-.66-.68-1.66-.9-2.53-.54-7.35,3.04-15.69,2.9-22.94-.38Z"/><path class="cls-2" d="M214.29,47.34c3.79-8.4,3.95-18.07,.44-26.59-.62-1.52-2.59-1.92-3.76-.78h0c-.68,.66-.9,1.66-.54,2.53,3.04,7.35,2.9,15.69-.38,22.94-.39,.86-.2,1.87,.46,2.55,1.14,1.18,3.11,.84,3.79-.65Z"/><path class="cls-2" d="M20.75,152.72c-1.52,.62-1.92,2.59-.78,3.76,.66,.68,1.66,.9,2.53,.54,7.35-3.04,15.69-2.9,22.94,.38,.86,.39,1.87,.2,2.55-.46,1.18-1.14,.84-3.11-.65-3.79-8.4-3.79-18.07-3.95-26.59-.44Z"/><path class="cls-2" d="M2.96,169.92c-3.79,8.4-3.95,18.07-.44,26.59,.62,1.52,2.59,1.92,3.76,.78,.68-.66,.9-1.66,.54-2.53-3.04-7.35-2.9-15.69,.38-22.94,.39-.86,.2-1.87-.46-2.55-1.14-1.18-3.11-.84-3.79,.65Z"/><path class="cls-2" d="M44.56,210.43c-7.35,3.04-15.69,2.9-22.94-.38-.86-.39-1.87-.2-2.55,.46-1.18,1.14-.84,3.11,.65,3.79,8.4,3.79,18.07,3.95,26.59,.44,1.52-.62,1.92-2.59,.78-3.76-.66-.68-1.66-.9-2.53-.54Z"/><path class="cls-2" d="M60.78,170.16c-.68,.66-.9,1.66-.54,2.53,3.04,7.35,2.9,15.69-.38,22.94-.39,.86-.2,1.87,.46,2.55,1.14,1.18,3.11,.84,3.79-.65,3.79-8.4,3.95-18.07,.44-26.59-.62-1.52-2.59-1.92-3.76-.78Z"/><path class="cls-2" d="M197.53,153.16c-8.4-3.79-18.07-3.95-26.59-.44-1.52,.62-1.92,2.59-.78,3.76,.66,.68,1.66,.9,2.53,.54,7.35-3.04,15.69-2.9,22.94,.38,.86,.39,1.87,.2,2.55-.46,1.18-1.14,.84-3.11-.65-3.79Z"/><path class="cls-2" d="M153.16,169.92c-3.79,8.4-3.95,18.07-.44,26.59,.62,1.52,2.59,1.92,3.76,.78,.68-.66,.9-1.66,.54-2.53-3.04-7.35-2.9-15.69,.38-22.94,.39-.86,.2-1.87-.46-2.55-1.14-1.18-3.11-.84-3.79,.65Z"/><path class="cls-2" d="M194.76,210.43c-7.35,3.04-15.69,2.9-22.94-.38-.86-.39-1.87-.2-2.55,.46-1.18,1.14-.84,3.11,.65,3.79,8.4,3.79,18.07,3.95,26.59,.44,1.52-.62,1.92-2.59,.78-3.76-.66-.68-1.66-.9-2.53-.54Z"/><path class="cls-2" d="M210.97,170.16h0c-.68,.66-.9,1.66-.54,2.53,3.04,7.35,2.9,15.69-.38,22.94-.39,.86-.2,1.87,.46,2.55,1.14,1.18,3.11,.84,3.79-.65,3.79-8.4,3.95-18.07,.44-26.59-.62-1.52-2.59-1.92-3.76-.78Z"/><path class="cls-2" d="M119.95,92.91l-10.48,6.05,3.67,2.12h0l14.83,8.55c.02-.34,.03-.67,.03-1,0-6.22-3-12.08-8.05-15.72Z"/><path class="cls-2" d="M113.13,116.03l-15.18,8.76c3.17,2.1,6.85,3.21,10.68,3.21,2.41,0,4.76-.44,6.98-1.3v-12.11l-2.48,1.43h0Z"/><path class="cls-2" d="M117.05,126.08c5.83-2.82,9.92-8.45,10.78-14.87l-10.78-6.22v21.09Z"/><path class="cls-2" d="M99,113.76h0l-9.73-5.63c0,.17,0,.33,0,.5,0,6,2.7,11.54,7.41,15.24l9.91-5.72-7.59-4.38Z"/><path class="cls-2" d="M108.03,98.13l10.57-6.11c-3.01-1.81-6.44-2.76-9.98-2.76-2.87,0-5.64,.61-8.22,1.82v11.43l7.61-4.39h0Z"/><path class="cls-2" d="M99,109.6h-.02v-17.76c-5.38,3.09-8.94,8.53-9.6,14.7l9.62,5.55v-2.49Z"/></svg>