<?xml version="1.0" encoding="UTF-8"?><svg id="Capa_1" xmlns="http://www.w3.org/2000/svg" viewBox="0 0 230.54 230.54"><defs><style>.cls-1{fill:#e02321;}.cls-2{fill:none;stroke:#e02321;stroke-miterlimit:10;stroke-width:4px;}</style></defs><rect class="cls-2" x="2" y="2" width="226.54" height="226.54" rx="6.56" ry="6.56"/><line class="cls-2" x1="2.03" y1="23.77" x2="228.93" y2="23.77"/><g><path class="cls-2" d="M40.39,119.84l27.96-38.31,27.35,38.32s-51.85-.02-55.31-.02Z"/><circle class="cls-2" cx="43.43" cy="68.34" r="7.8"/><path class="cls-1" d="M122.49,97.18c5.42,.22,10.79,1.06,16.2,1.44,2.68,.19,5.37,.26,8.05,.06s5.26-.72,7.9-1.01c5.27-.6,10.34-.08,15.55,.73,5.44,.85,10.79,.75,16.25,.25,6.03-.56,12.06-1.37,18.12-.98,1.35,.09,2.5-1.21,2.5-2.5,0-1.43-1.15-2.41-2.5-2.5-10.66-.69-21.27,2.5-31.9,1.09-5.27-.7-10.35-1.62-15.7-1.29-2.73,.17-5.41,.67-8.11,1.01s-5.35,.38-8.03,.27c-6.13-.26-12.2-1.31-18.34-1.56-3.22-.13-3.21,4.87,0,5h0Z"/><circle class="cls-2" cx="161.95" cy="54.6" r="7.8"/><path class="cls-1" d="M25.08,187.27c5.71,.37,11.28,1.81,16.96,2.43,2.84,.31,5.69,.38,8.53,.01s5.51-1.2,8.29-1.72,5.46-.54,8.17-.24,5.35,1.18,8.02,1.81c5.52,1.31,11.02,.9,16.57,.06,5.98-.9,11.93-2.19,18-1.55,1.34,.14,2.5-1.25,2.5-2.5,0-1.47-1.15-2.36-2.5-2.5-5.52-.58-11.02,.38-16.45,1.27-5.15,.84-10.51,1.7-15.7,.65-2.67-.54-5.25-1.44-7.94-1.89-2.91-.49-5.86-.66-8.81-.37s-5.56,1-8.33,1.61-5.49,.73-8.28,.54c-6.4-.42-12.63-2.2-19.04-2.62-1.35-.09-2.5,1.21-2.5,2.5,0,1.43,1.15,2.41,2.5,2.5h0Z"/><circle class="cls-2" cx="94.69" cy="144.07" r="7.8"/><polyline class="cls-2" points="179.41 208.49 141.15 168.53 134.97 143.15 161.65 150.31 205.59 193.92"/><line class="cls-2" x1="161.65" y1="150.31" x2="141.15" y2="168.53"/><line class="cls-2" x1="166.21" y1="181.55" x2="182.16" y2="196.85"/><line class="cls-2" x1="164.09" y1="168.86" x2="188.01" y2="192.29"/><rect class="cls-2" x="25.17" y="39.75" width="86.1" height="80.77" rx="10.61" ry="10.61"/><rect class="cls-2" x="120.23" y="39.75" width="86.1" height="80.77" rx="10.61" ry="10.61"/><rect class="cls-2" x="24.21" y="127.98" width="86.1" height="80.77" rx="10.61" ry="10.61"/><rect class="cls-2" x="119.27" y="127.98" width="86.1" height="80.77" rx="10.61" ry="10.61"/></g></svg>